<svg xmlns="http://www.w3.org/2000/svg" viewBox="0 0 250 250">
	<path d="M57.86 199.746l-5.663-5.65 53.562-53.68 5.663 5.65-53.562 53.68zm89.132-.812l-15.27-48.123 7.625-2.42 15.27 48.123-7.625 2.42zm39.297-58.362l-32.47-6.054 1.467-7.865 32.47 6.054-1.467 7.865zM68.528 128.78l-.097-8 33-.4.097 8-33 .4zm37.328-20.83L53.916 55.8l5.668-5.646 51.94 52.15-5.668 5.646zm44.764-.4l-5.63-5.685L188.71 58.58l5.63 5.685-43.718 43.284z"/>
	<path d="M38.77 19.6c8.203 0 14.876 6.673 14.876 14.876S46.972 49.342 38.77 49.342 23.893 42.67 23.893 34.466 30.566 19.6 38.77 19.6m0-16C21.717 3.6 7.893 17.414 7.893 34.466S21.717 65.342 38.77 65.342s30.876-13.824 30.876-30.876S55.82 3.6 38.77 3.6zm165.343 37.25a6.76 6.76 0 0 1 6.751 6.751 6.76 6.76 0 0 1-6.751 6.751 6.76 6.76 0 0 1-6.751-6.751 6.76 6.76 0 0 1 6.751-6.751m0-16c-12.565 0-22.75 10.186-22.75 22.75s10.186 22.75 22.75 22.75 22.75-10.186 22.75-22.75-10.186-22.75-22.75-22.75h0zm11.222 104.04c8.07.01 14.61 6.55 14.62 14.62-.01 8.07-6.55 14.61-14.62 14.62-8.07-.01-14.61-6.55-14.62-14.62.01-8.07 6.55-14.61 14.62-14.62m0-16c-16.9 0-30.62 13.7-30.62 30.62s13.7 30.62 30.62 30.62 30.62-13.7 30.62-30.62-13.7-30.62-30.62-30.62zm-165.218 4.945c3.878 0 7.033 3.155 7.033 7.033s-3.155 7.033-7.033 7.033-7.033-3.155-7.033-7.033 3.155-7.033 7.033-7.033m0-16c-12.72 0-23.033 10.312-23.033 23.033S37.396 147.9 50.117 147.9s23.033-10.3 23.033-23.032a23.03 23.03 0 0 0-23.033-23.033h0zm77.243 6.925c8.378.012 15.166 6.8 15.178 15.178-.012 8.378-6.8 15.166-15.178 15.178-8.378-.012-15.166-6.8-15.178-15.178.012-8.378 6.8-15.166 15.178-15.178m0-16c-17.22 0-31.178 13.96-31.178 31.178s13.96 31.178 31.178 31.178 31.178-13.96 31.178-31.178S144.58 92.76 127.36 92.76zM34.876 201.657c8.186.01 14.82 6.644 14.83 14.83-.01 8.186-6.644 14.82-14.83 14.83-8.186-.01-14.82-6.644-14.83-14.83.01-8.186 6.644-14.82 14.83-14.83m0-16c-17.027 0-30.83 13.803-30.83 30.83s13.803 30.83 30.83 30.83 30.83-13.803 30.83-30.83-13.803-30.83-30.83-30.83h0zm123.38 23.473c4.276 0 7.754 3.48 7.754 7.754s-3.48 7.754-7.754 7.754-7.754-3.48-7.754-7.754 3.48-7.754 7.754-7.754m0-16c-13.12 0-23.754 10.635-23.754 23.754s10.635 23.754 23.754 23.754S182 230.003 182 216.884s-10.634-23.754-23.754-23.754h0z"/>
</svg>