<svg xmlns="http://www.w3.org/2000/svg" viewBox="0 0 250 250">
	<path fill="black" stroke="none" d="M215.335 112.89c-12.127 0-22.606 7.05-27.565 17.276l-17.1-3.188c.07-1.006.118-2.017.118-3.04 0-9.308-2.938-17.924-7.923-24.993l31.227-30.918c3.024 1.486 6.424 2.324 10.02 2.324 12.565 0 22.75-10.186 22.75-22.75s-10.186-22.75-22.75-22.75-22.75 10.186-22.75 22.75c0 4.235 1.16 8.197 3.176 11.592l-30.664 30.362c-7.336-5.665-16.527-9.044-26.513-9.044a43.23 43.23 0 0 0-25.656 8.394L64.493 51.54c3.253-4.89 5.152-10.76 5.152-17.075C69.645 17.414 55.82 3.6 38.77 3.6S7.893 17.414 7.893 34.466 21.717 65.342 38.77 65.342c6.033 0 11.657-1.737 16.413-4.728l37.3 37.452c-4.27 5.748-7.145 12.59-8.146 20.028l-12.16.144c-2.848-9.488-11.644-16.402-22.06-16.402-12.72 0-23.033 10.312-23.033 23.033s10.312 23.033 23.033 23.033c10.5 0 19.37-7.042 22.134-16.663l12.28-.145a43.2 43.2 0 0 0 8.112 18.932l-40.698 40.79c-4.887-3.256-10.755-5.156-17.067-5.156-17.027 0-30.83 13.803-30.83 30.83s13.803 30.83 30.83 30.83 30.83-13.803 30.83-30.83a30.67 30.67 0 0 0-4.699-16.353l40.916-41.007c7.15 5.178 15.934 8.24 25.438 8.24 2.322 0 4.6-.187 6.823-.538l9.845 31.03c-5.784 4.333-9.528 11.24-9.528 19.024 0 13.12 10.635 23.754 23.754 23.754s23.754-10.635 23.754-23.754-10.635-23.754-23.754-23.754c-.694 0-1.38.036-2.06.094l-9.625-30.336a43.57 43.57 0 0 0 21.265-23.213l16.896 3.15-.017.687c0 16.91 13.71 30.62 30.62 30.62s30.62-13.71 30.62-30.62-13.712-30.622-30.622-30.622z"/>
</svg>